<svg id="Layer_1" data-name="Layer 1" xmlns="http://www.w3.org/2000/svg" viewBox="0 0 530 67"><defs><style>.cls-1{fill:#61ad00;}.cls-2{fill:#1b365d;}.cls-3{fill:#d1d3d4;}</style></defs><polygon class="cls-1" points="30.14 1.08 21.52 6.04 30.14 11 38.74 6.04 30.14 1.08"/><polygon class="cls-1" points="20.57 6.59 11.97 11.55 20.57 16.52 29.16 11.55 20.57 6.59"/><polygon class="cls-1" points="39.69 6.59 31.09 11.55 39.69 16.52 48.29 11.55 39.69 6.59"/><polygon class="cls-1" points="49.24 12.11 40.64 17.07 49.24 22.03 57.84 17.07 49.24 12.11"/><polygon class="cls-1" points="11.02 12.11 2.42 17.07 11.02 22.03 19.61 17.07 11.02 12.11"/><polygon class="cls-2" points="1.94 49.91 10.54 54.87 10.54 44.94 1.94 39.98 1.94 49.91"/><polygon class="cls-2" points="11.49 55.42 20.09 60.41 20.09 50.46 11.49 45.49 11.49 55.42"/><polygon class="cls-2" points="1.94 38.88 10.54 43.84 10.54 33.91 1.94 28.95 1.94 38.88"/><polygon class="cls-2" points="1.94 27.85 10.54 32.81 10.54 22.86 1.94 17.9 1.94 27.85"/><polygon class="cls-2" points="21.04 60.96 29.66 65.92 29.66 55.97 21.04 51.01 21.04 60.96"/><polygon class="cls-3" points="58.34 49.91 49.72 54.87 49.72 44.94 58.34 39.98 58.34 49.91"/><polygon class="cls-3" points="48.76 55.42 40.17 60.41 40.17 50.46 48.76 45.49 48.76 55.42"/><polygon class="cls-3" points="58.34 38.88 49.72 43.84 49.72 33.91 58.34 28.95 58.34 38.88"/><polygon class="cls-3" points="58.34 27.85 49.72 32.81 49.72 22.86 58.34 17.9 58.34 27.85"/><polygon class="cls-3" points="39.21 60.96 30.62 65.92 30.62 55.97 39.21 51.01 39.21 60.96"/><polygon class="cls-1" points="30.14 55.14 38.74 50.18 30.14 45.22 21.52 50.18 30.14 55.14"/><polygon class="cls-1" points="39.69 49.63 48.29 44.67 39.69 39.7 31.09 44.67 39.69 49.63"/><polygon class="cls-1" points="20.57 49.63 29.16 44.67 20.57 39.7 11.97 44.67 20.57 49.63"/><polygon class="cls-2" points="48.76 22.86 40.17 17.9 40.17 27.85 48.76 32.81 48.76 22.86"/><polygon class="cls-2" points="39.21 17.34 30.62 12.38 30.62 22.31 39.21 27.3 39.21 17.34"/><polygon class="cls-2" points="48.76 33.91 40.17 28.95 40.17 38.88 48.76 43.84 48.76 33.91"/><polygon class="cls-3" points="11.49 22.86 20.09 17.9 20.09 27.85 11.49 32.81 11.49 22.86"/><polygon class="cls-3" points="21.04 17.34 29.66 12.38 29.66 22.31 21.04 27.3 21.04 17.34"/><polygon class="cls-3" points="11.49 33.91 20.09 28.95 20.09 38.88 11.49 43.84 11.49 33.91"/><polygon class="cls-3" points="39.21 38.88 39.21 28.95 30.62 33.91 30.62 43.84 39.21 38.88"/><polygon class="cls-2" points="21.04 38.88 29.64 43.84 29.64 33.91 21.04 28.95 21.04 38.88"/><polygon class="cls-1" points="30.14 23.14 21.52 28.12 30.14 33.09 38.74 28.12 30.14 23.14"/><path class="cls-2" d="M97.81,53.08,96,47.25H84L82,53.08H72L86.2,13.93h7.43l14.24,39.15ZM90.16,28.77,86.64,39.22h6.82Z"/><path class="cls-2" d="M130.59,49.62a13.84,13.84,0,0,1-19,0c-2.47-2.7-3.24-5.5-3.24-11.33s.77-8.64,3.24-11.33a13.81,13.81,0,0,1,19,0c2.47,2.69,3.24,5.55,3.24,11.33S133.06,46.92,130.59,49.62Zm-7.1-17.49a3.94,3.94,0,0,0-4.84,0c-1.15,1.15-1.32,3.24-1.32,6.16s.17,5,1.32,6.16a4,4,0,0,0,4.84,0c1.16-1.16,1.32-3.25,1.32-6.16S124.65,33.28,123.49,32.13Z"/><path class="cls-2" d="M153.58,39.11h-5.89v14h-9.62V13.93h15.51c8.69,0,13.36,6.15,13.36,12.59S162.27,39.11,153.58,39.11Zm-.44-16.55h-5.45v7.92h5.45a4,4,0,1,0,0-7.92Z"/><path class="cls-2" d="M183,53.41c-6,0-10.89-1.1-14.84-5.17l6.15-6.16c2,2,5.61,2.75,8.75,2.75,3.79,0,5.61-1.26,5.61-3.52A3.28,3.28,0,0,0,187.9,39a4.38,4.38,0,0,0-2.59-1l-4.73-.66c-3.46-.5-6.1-1.65-7.86-3.47S170,29.32,170,26c0-7.15,5.39-12.37,14.3-12.37,5.61,0,9.85,1.32,13.2,4.67l-6.05,6.05C189,21.84,185.75,22,184.05,22c-3.36,0-4.73,1.92-4.73,3.63a2.55,2.55,0,0,0,.77,1.81,4.39,4.39,0,0,0,2.69,1.16l4.73.66c3.52.49,6.05,1.59,7.7,3.24,2.09,2,2.92,5,2.92,8.58C198.13,49.07,191.25,53.41,183,53.41Z"/><path class="cls-1" d="M232.23,53.08l-2.7-7.86H214.08l-2.7,7.86h-6.32l14.35-39.15h4.79l14.35,39.15Zm-10.29-30.3-6.1,17.38h12Z"/><path class="cls-1" d="M253.07,53.41c-6.27,0-12.43-3.85-12.43-14.3s6.16-14.24,12.43-14.24a11.46,11.46,0,0,1,9.19,3.9l-3.85,3.74c-1.76-1.92-3.14-2.64-5.34-2.64a6.28,6.28,0,0,0-5.17,2.48c-1.21,1.54-1.65,3.52-1.65,6.76s.44,5.28,1.65,6.82a6.28,6.28,0,0,0,5.17,2.48c2.2,0,3.58-.72,5.34-2.64l3.85,3.68A11.48,11.48,0,0,1,253.07,53.41Z"/><path class="cls-1" d="M282.17,53.08V50.55c-2,2-4,2.86-7.42,2.86s-5.78-.82-7.48-2.53a8.54,8.54,0,0,1-2.2-6c0-4.68,3.24-8,9.62-8h7.37v-2c0-3.52-1.76-5.23-6.1-5.23-3.08,0-4.57.72-6.11,2.7l-3.68-3.47c2.64-3.08,5.39-4,10-4,7.64,0,11.49,3.24,11.49,9.57V53.08Zm-.11-12.32h-6.54c-3.3,0-5,1.49-5,4s1.6,4,5.12,4c2.14,0,3.74-.17,5.22-1.6.83-.82,1.21-2.14,1.21-4.12Z"/><path class="cls-1" d="M310.94,53.08v-3a8.58,8.58,0,0,1-7.37,3.3,9.64,9.64,0,0,1-6.82-2.47c-2.81-2.81-3.14-7.59-3.14-11.83s.33-9,3.14-11.77a9.5,9.5,0,0,1,6.76-2.47c3,0,5.28.71,7.32,3.13V13.93h5.61V53.08Zm-5.89-23.21c-5.06,0-5.83,4.29-5.83,9.24s.77,9.3,5.83,9.3,5.78-4.35,5.78-9.3S310.11,29.87,305.05,29.87Z"/><path class="cls-1" d="M328.1,40.76c0,4.79,2.53,7.81,7.09,7.81A8.33,8.33,0,0,0,342,45.71l3.57,3.36a13.08,13.08,0,0,1-10.45,4.34c-7,0-12.54-3.68-12.54-14.3,0-9,4.68-14.24,11.83-14.24,7.48,0,11.82,5.5,11.82,13.42v2.47Zm11.77-7.7a5.75,5.75,0,0,0-5.5-3.52,5.83,5.83,0,0,0-5.56,3.52,8.77,8.77,0,0,0-.71,3.8h12.54A8.9,8.9,0,0,0,339.87,33.06Z"/><path class="cls-1" d="M386.23,53.08v-17c0-4.35-2.48-6.22-5.61-6.22a5.52,5.52,0,0,0-5.77,5.94V53.08h-5.61v-17c0-4.35-2.48-6.22-5.61-6.22s-5.78,1.93-5.78,6.22v17h-5.61V25.2h5.5V28a10.11,10.11,0,0,1,7.43-3.13,8.91,8.91,0,0,1,7.92,4.07,10.57,10.57,0,0,1,8.74-4.07,10.07,10.07,0,0,1,7,2.53,10.37,10.37,0,0,1,3,7.86V53.08Z"/><path class="cls-1" d="M407.85,58.63a9,9,0,0,1-2,3.47,7.73,7.73,0,0,1-5.72,2h-2.25V59.07h1.43c2.36,0,3.19-.71,4-3l1.54-4.34L395.09,25.2H401l6.65,19.63,6.49-19.63h6Z"/><path class="cls-2" d="M448.09,28.41,453,14.33h2.47L449.1,31.39h-2l-6.31-17.06h2.45Z"/><path class="cls-2" d="M457.38,15.35a1.31,1.31,0,0,1,.32-.89,1.46,1.46,0,0,1,1.92,0,1.27,1.27,0,0,1,.33.89,1.23,1.23,0,0,1-.33.88,1.28,1.28,0,0,1-2.24-.88Zm2.35,16h-2.17V18.71h2.17Z"/><path class="cls-2" d="M469.32,20.66a5.86,5.86,0,0,0-1.06-.08,2.86,2.86,0,0,0-2.9,1.81v9h-2.17V18.71h2.11l0,1.47a3.38,3.38,0,0,1,3-1.7,2.22,2.22,0,0,1,1,.16Z"/><path class="cls-2" d="M474.84,15.64v3.07h2.37v1.68h-2.37v7.87a1.79,1.79,0,0,0,.32,1.15,1.35,1.35,0,0,0,1.08.38,5.56,5.56,0,0,0,1-.14V31.4a6.58,6.58,0,0,1-1.67.23,2.71,2.71,0,0,1-2.19-.88,3.8,3.8,0,0,1-.73-2.5V20.39h-2.31V18.71h2.31V15.64Z"/><path class="cls-2" d="M487.57,30.14a4.61,4.61,0,0,1-3.72,1.49,3.9,3.9,0,0,1-3.08-1.18A5.09,5.09,0,0,1,479.69,27V18.71h2.17v8.2c0,1.92.78,2.88,2.35,2.88a3.25,3.25,0,0,0,3.3-1.85V18.71h2.17V31.39h-2.06Z"/><path class="cls-2" d="M500.8,31.39a4.44,4.44,0,0,1-.3-1.33,4.88,4.88,0,0,1-3.61,1.57,4.52,4.52,0,0,1-3.08-1.06,3.45,3.45,0,0,1-1.2-2.69,3.6,3.6,0,0,1,1.5-3.08,7.13,7.13,0,0,1,4.24-1.09h2.11v-1a2.44,2.44,0,0,0-.68-1.81,2.72,2.72,0,0,0-2-.67,3.16,3.16,0,0,0-1.95.58,1.74,1.74,0,0,0-.78,1.42h-2.18a3,3,0,0,1,.67-1.83,4.57,4.57,0,0,1,1.83-1.4,6,6,0,0,1,2.54-.52,5,5,0,0,1,3.43,1.1,3.93,3.93,0,0,1,1.29,3v5.84a7.31,7.31,0,0,0,.44,2.78v.18Zm-3.6-1.65a3.75,3.75,0,0,0,1.94-.53,3.11,3.11,0,0,0,1.32-1.37v-2.6h-1.7c-2.66,0-4,.78-4,2.33a2,2,0,0,0,.68,1.6A2.6,2.6,0,0,0,497.2,29.74Z"/><path class="cls-2" d="M508.38,31.39h-2.17v-18h2.17Z"/><path class="cls-2" d="M455,53a6.29,6.29,0,0,1-2,4.18,6.55,6.55,0,0,1-4.47,1.47,6,6,0,0,1-4.84-2.17,8.69,8.69,0,0,1-1.83-5.8V49a9.78,9.78,0,0,1,.85-4.18,6.38,6.38,0,0,1,2.41-2.78,6.74,6.74,0,0,1,3.61-1,6.17,6.17,0,0,1,4.36,1.51A6.36,6.36,0,0,1,455,46.82h-2.26a5,5,0,0,0-1.27-3,3.86,3.86,0,0,0-2.74-.91,4,4,0,0,0-3.38,1.59,7.32,7.32,0,0,0-1.22,4.54v1.66a7.49,7.49,0,0,0,1.16,4.42,3.74,3.74,0,0,0,3.24,1.64,4.32,4.32,0,0,0,2.88-.85,4.71,4.71,0,0,0,1.33-3Z"/><path class="cls-2" d="M465.55,58.39a4.44,4.44,0,0,1-.3-1.33,4.88,4.88,0,0,1-3.61,1.57,4.52,4.52,0,0,1-3.08-1.06,3.45,3.45,0,0,1-1.2-2.69,3.6,3.6,0,0,1,1.5-3.08,7.13,7.13,0,0,1,4.24-1.09h2.11v-1a2.44,2.44,0,0,0-.68-1.81,2.72,2.72,0,0,0-2-.67,3.16,3.16,0,0,0-1.95.58,1.74,1.74,0,0,0-.78,1.42h-2.18a3,3,0,0,1,.67-1.83,4.57,4.57,0,0,1,1.83-1.4,6,6,0,0,1,2.54-.52,5,5,0,0,1,3.43,1.1,3.93,3.93,0,0,1,1.29,3v5.84a7.31,7.31,0,0,0,.44,2.78v.18ZM462,56.74a3.75,3.75,0,0,0,1.94-.53,3.11,3.11,0,0,0,1.32-1.37v-2.6h-1.7c-2.66,0-4,.78-4,2.33a2,2,0,0,0,.68,1.6A2.6,2.6,0,0,0,462,56.74Z"/><path class="cls-2" d="M472.82,45.71l.05,1.41a4.71,4.71,0,0,1,3.77-1.64,3.63,3.63,0,0,1,3.62,2A4.87,4.87,0,0,1,481.9,46a5,5,0,0,1,2.4-.56c2.78,0,4.2,1.47,4.24,4.42v8.49h-2.17V50a2.9,2.9,0,0,0-.62-2,2.72,2.72,0,0,0-2.08-.67A2.8,2.8,0,0,0,480.74,50v8.41h-2.18v-8.3c0-1.85-.9-2.77-2.71-2.77a2.91,2.91,0,0,0-2.92,1.82v9.25h-2.16V45.71Z"/><path class="cls-2" d="M502.52,52.19a7.63,7.63,0,0,1-1.32,4.67,4.24,4.24,0,0,1-3.59,1.77A4.63,4.63,0,0,1,494,57.16v6.11h-2.17V45.71h2l.11,1.41a4.47,4.47,0,0,1,3.68-1.64,4.3,4.3,0,0,1,3.61,1.72,7.67,7.67,0,0,1,1.33,4.8ZM500.35,52a5.61,5.61,0,0,0-.91-3.39,2.93,2.93,0,0,0-2.51-1.24A3.18,3.18,0,0,0,494,49.07v6a3.19,3.19,0,0,0,3,1.74,2.93,2.93,0,0,0,2.48-1.24A6.13,6.13,0,0,0,500.35,52Z"/><path class="cls-2" d="M513.1,57.14a4.6,4.6,0,0,1-3.71,1.49,3.94,3.94,0,0,1-3.09-1.18A5.14,5.14,0,0,1,505.23,54V45.71h2.17v8.2q0,2.88,2.34,2.88a3.26,3.26,0,0,0,3.31-1.85V45.71h2.16V58.39h-2.06Z"/><path class="cls-2" d="M525.89,55a1.58,1.58,0,0,0-.66-1.36,6.16,6.16,0,0,0-2.31-.84,10.92,10.92,0,0,1-2.61-.85,3.56,3.56,0,0,1-1.43-1.17,2.79,2.79,0,0,1-.47-1.62,3.29,3.29,0,0,1,1.32-2.63,5.14,5.14,0,0,1,3.37-1.08,5.32,5.32,0,0,1,3.5,1.11,3.56,3.56,0,0,1,1.34,2.85h-2.18a2,2,0,0,0-.75-1.53,2.85,2.85,0,0,0-1.91-.65,2.91,2.91,0,0,0-1.85.52,1.6,1.6,0,0,0-.67,1.34,1.33,1.33,0,0,0,.62,1.19,7.79,7.79,0,0,0,2.25.76,11.37,11.37,0,0,1,2.63.87,3.77,3.77,0,0,1,1.49,1.21,2.94,2.94,0,0,1,.49,1.73,3.25,3.25,0,0,1-1.36,2.72,5.67,5.67,0,0,1-3.53,1,6.36,6.36,0,0,1-2.69-.54,4.31,4.31,0,0,1-1.84-1.51,3.62,3.62,0,0,1-.66-2.09h2.17a2.26,2.26,0,0,0,.87,1.73,3.36,3.36,0,0,0,2.15.64,3.54,3.54,0,0,0,2-.5A1.53,1.53,0,0,0,525.89,55Z"/></svg>