<svg viewBox="0 0 444.12499999999994 198.31249999999997" preserveAspectRatio="xMinYMin meet" data-src="chap9diag-36" xmlns:dc="http://purl.org/dc/elements/1.1/" xmlns:cc="http://creativecommons.org/ns#" xmlns:rdf="http://www.w3.org/1999/02/22-rdf-syntax-ns#" xmlns:svg="http://www.w3.org/2000/svg" xmlns="http://www.w3.org/2000/svg" xmlns:inkscape="http://www.inkscape.org/namespaces/inkscape" version="1.1" width="444.12499999999994" height="198.31249999999997"  xml:space="preserve"><metadata ><rdf:RDF><cc:Work rdf:about=""><dc:format>image/svg+xml</dc:format><dc:type rdf:resource="http://purl.org/dc/dcmitype/StillImage" /></cc:Work></rdf:RDF></metadata><defs ><clipPath id="chap9diag-36-clipPath18"><path d="M 0,0 302,0 302,131 0,131 0,0 z"  /></clipPath></defs><g transform="translate(5,5)"><g transform="scale(1.15)"><g transform="matrix(1.25,0,0,-1.25,0,163.75)" ><g ><g ><g clip-path="url(#chap9diag-36-clipPath18)" ><g transform="translate(0,131)" ><g transform="translate(144,-76)" ><path d="m 0,36.85048 -28.8108,-13.8746 -7.11584,-31.17582 19.93782,-25.00125 31.97764,0 L 35.92664,-8.19994 28.8108,22.97588 0,36.85048 z"  style="fill:none;stroke:currentColor;stroke-width:0.5;stroke-linecap:butt;stroke-linejoin:round;stroke-miterlimit:10;stroke-opacity:1;stroke-dasharray:none" /><path d="m -109.44006,0 -34.19989,41.04028 68.39978,0 6.84039,-68.39978 -41.04028,0 0,27.3595"  style="fill:none;stroke:currentColor;stroke-width:0.5;stroke-linecap:round;stroke-linejoin:round;stroke-miterlimit:10;stroke-opacity:1;stroke-dasharray:none" /><path d="m 75.24017,0 20.52014,-47.87964 41.03925,-6.84039 20.52014,61.56043 0,34.19988 L 116.28046,75.24017 75.24017,54.72003 75.24017,0"  style="fill:none;stroke:currentColor;stroke-width:0.5;stroke-linecap:round;stroke-linejoin:round;stroke-miterlimit:10;stroke-opacity:1;stroke-dasharray:none" /><g transform="translate(0,131)"  /></g></g></g></g></g></g></g></g></svg>