<svg viewBox="0 0 298.9375 93.375" preserveAspectRatio="xMinYMin meet" data-src="chap9diag-9" xmlns:dc="http://purl.org/dc/elements/1.1/" xmlns:cc="http://creativecommons.org/ns#" xmlns:rdf="http://www.w3.org/1999/02/22-rdf-syntax-ns#" xmlns:svg="http://www.w3.org/2000/svg" xmlns="http://www.w3.org/2000/svg" xmlns:inkscape="http://www.inkscape.org/namespaces/inkscape" version="1.1" width="298.9375" height="93.375"  xml:space="preserve"><metadata ><rdf:RDF><cc:Work rdf:about=""><dc:format>image/svg+xml</dc:format><dc:type rdf:resource="http://purl.org/dc/dcmitype/StillImage" /></cc:Work></rdf:RDF></metadata><defs ><clipPath id="chap9diag-9-clipPath18"><path d="M 0,0 201,0 201,58 0,58 0,0 z"  /></clipPath></defs><g transform="translate(5,5)"><g transform="scale(1.15)"><g transform="matrix(1.25,0,0,-1.25,0,72.5)" ><g ><g ><g clip-path="url(#chap9diag-9-clipPath18)" ><g transform="translate(0,58)" ><g transform="translate(101,-29)" ><path d="m 0,28.34645 -22.1621,-10.67275 -5.4737,-23.98132 15.33674,-19.2317 24.59812,0 L 27.6358,-6.30762 22.1621,17.6737 0,28.34645 z"  style="fill:none;stroke:currentColor;stroke-width:0.5;stroke-linecap:butt;stroke-linejoin:round;stroke-miterlimit:10;stroke-opacity:1;stroke-dasharray:none" /><path d="M 72,28.34645 45.0411,8.75964 l 10.29731,-31.69252 33.32318,0 L 98.9589,8.75964 72,28.34645 z"  style="fill:none;stroke:currentColor;stroke-width:0.5;stroke-linecap:butt;stroke-linejoin:round;stroke-miterlimit:10;stroke-opacity:1;stroke-dasharray:none" /><path d="M -72,28.34645 -86.17323,24.54881 -96.54881,14.17323 -100.34645,0 -96.54881,-14.17323 -86.17323,-24.54881 -72,-28.34645 l 14.17323,3.79764 10.37558,10.37558 L -43.65355,0 -47.45119,14.17323 -57.82677,24.54881 -72,28.34645 z"  style="fill:none;stroke:currentColor;stroke-width:0.5;stroke-linecap:butt;stroke-linejoin:round;stroke-miterlimit:10;stroke-opacity:1;stroke-dasharray:none" /><g transform="translate(0,58)"  /></g></g></g></g></g></g></g></g></svg>