<svg viewBox="0 0 265.875 304.6875" preserveAspectRatio="xMinYMin meet" data-src="secheadings-16" xmlns:dc="http://purl.org/dc/elements/1.1/" xmlns:cc="http://creativecommons.org/ns#" xmlns:rdf="http://www.w3.org/1999/02/22-rdf-syntax-ns#" xmlns:svg="http://www.w3.org/2000/svg" xmlns="http://www.w3.org/2000/svg" xmlns:inkscape="http://www.inkscape.org/namespaces/inkscape" version="1.1" width="265.875" height="304.6875"  xml:space="preserve"><metadata ><rdf:RDF><cc:Work rdf:about=""><dc:format>image/svg+xml</dc:format><dc:type rdf:resource="http://purl.org/dc/dcmitype/StillImage" /></cc:Work></rdf:RDF></metadata><defs ><clipPath id="secheadings-16-clipPath18"><path d="M 0,0 178,0 178,205 0,205 0,0 z"  /></clipPath></defs><g transform="translate(5,5)"><g transform="scale(1.15)"><g transform="matrix(1.25,0,0,-1.25,0,256.25)" ><g ><g ><g clip-path="url(#secheadings-16-clipPath18)" ><g transform="translate(0,205)" ><g transform="translate(89,-87)" ><path d="m -2.98878,64.79984 5.97756,0"  style="fill:none;stroke:currentColor;stroke-width:0.5;stroke-linecap:round;stroke-linejoin:round;stroke-miterlimit:10;stroke-opacity:1;stroke-dasharray:none" /><path d="M 0,86.39978 0,43.19989"  style="fill:none;stroke:currentColor;stroke-width:0.5;stroke-linecap:round;stroke-linejoin:round;stroke-miterlimit:10;stroke-opacity:1;stroke-dasharray:none" /><path d="m -2.98878,21.59995 5.97756,0"  style="fill:none;stroke:currentColor;stroke-width:0.5;stroke-linecap:round;stroke-linejoin:round;stroke-miterlimit:10;stroke-opacity:1;stroke-dasharray:none" /><path d="M 0,43.19989 0,0"  style="fill:none;stroke:currentColor;stroke-width:0.5;stroke-linecap:round;stroke-linejoin:round;stroke-miterlimit:10;stroke-opacity:1;stroke-dasharray:none" /><path d="m -13.50931,30.85367 4.41241,4.03259"  style="fill:none;stroke:currentColor;stroke-width:0.5;stroke-linecap:round;stroke-linejoin:round;stroke-miterlimit:10;stroke-opacity:1;stroke-dasharray:none" /><path d="m -13.69572,36.35191 c 1.27174,-2.54348 3.22666,-4.68254 5.64562,-6.17741"  style="fill:none;stroke:currentColor;stroke-width:0.5;stroke-linecap:round;stroke-linejoin:round;stroke-miterlimit:10;stroke-opacity:1;stroke-dasharray:none" /><path d="m -5.00099,25.59584 1.63357,5.75"  style="fill:none;stroke:currentColor;stroke-width:0.5;stroke-linecap:round;stroke-linejoin:round;stroke-miterlimit:10;stroke-opacity:1;stroke-dasharray:none" /><path d="M -8.04987,30.17487 C -5.63098,28.68002 -2.84364,27.88799 0,27.88799"  style="fill:none;stroke:currentColor;stroke-width:0.5;stroke-linecap:round;stroke-linejoin:round;stroke-miterlimit:10;stroke-opacity:1;stroke-dasharray:none" /><path d="M 0,0 -86.39978,0 0,43.19989 -26.69868,0 l -6.6e-4,82.1705"  style="fill:none;stroke:currentColor;stroke-width:0.5;stroke-linecap:round;stroke-linejoin:round;stroke-miterlimit:10;stroke-opacity:1;stroke-dasharray:none" /><path d="m -26.69876,4.98131 -4.98131,-8e-5 7e-5,-4.98131"  style="fill:none;stroke:currentColor;stroke-width:0.5;stroke-linecap:round;stroke-linejoin:round;stroke-miterlimit:10;stroke-opacity:1;stroke-dasharray:none" /><path d="m 0,4.98131 -4.98131,0 0,-4.98131"  style="fill:none;stroke:currentColor;stroke-width:0.5;stroke-linecap:round;stroke-linejoin:round;stroke-miterlimit:10;stroke-opacity:1;stroke-dasharray:none" /><path d="m 86.39978,0 c 0,22.91566 -9.10457,44.89003 -25.30716,61.09262 C 44.89003,77.29521 22.91566,86.39978 0,86.39978 c -22.91566,0 -44.89003,-9.10457 -61.09262,-25.30716 C -77.29521,44.89003 -86.39978,22.91566 -86.39978,0 c 0,-22.91566 9.10457,-44.89003 25.30716,-61.09262 C -44.89003,-77.29521 -22.91566,-86.39978 0,-86.39978 c 22.91566,0 44.89003,9.10457 61.09262,25.30716 C 77.29521,-44.89003 86.39978,-22.91566 86.39978,0 z"  style="fill:none;stroke:currentColor;stroke-width:0.5;stroke-linecap:round;stroke-linejoin:round;stroke-miterlimit:10;stroke-opacity:1;stroke-dasharray:none" /><path d="M -86.39978,0 -26.69934,82.1705 69.89758,50.78482 69.89871,-50.78252 -26.69653,-82.17003 -86.39978,0"  style="fill:none;stroke:currentColor;stroke-width:1.5;stroke-linecap:round;stroke-linejoin:round;stroke-miterlimit:10;stroke-opacity:1;stroke-dasharray:none" /><g transform="translate(0,205)" ><text transform="matrix(1,0,0,-1,-88.7828,-319.5748)" ><tspan x="0 7.8763704 13.94183 20.60729 25.45093 29.08366 33.327301 39.99276 44.836403 48.469131 52.10186 58.16732 67.560059 73.625519 80.596428 88.778259 96.654625 102.10918 108.17464 114.8401 118.47282 123.92738 130.89828 137.56375 143.0183 149.68376 153.3165 158.77104 164.8365 170.90196" y="0"  style="font-size:10.90909958px;font-variant:normal;font-weight:bold;writing-mode:lr-tb;fill:currentColor;fill-opacity:1;fill-rule:nonzero;stroke:none;font-family:STIX;-inkscape-font-specification:URWPalladioL-Bold">ConstructionofaRegularPentagon</tspan></text> </g></g></g></g></g></g></g></g></g></svg>