<svg viewBox="0 0 205.49999999999997 77.5625" preserveAspectRatio="xMinYMin meet" data-src="chap8diag-20" xmlns:dc="http://purl.org/dc/elements/1.1/" xmlns:cc="http://creativecommons.org/ns#" xmlns:rdf="http://www.w3.org/1999/02/22-rdf-syntax-ns#" xmlns:svg="http://www.w3.org/2000/svg" xmlns="http://www.w3.org/2000/svg" xmlns:inkscape="http://www.inkscape.org/namespaces/inkscape" version="1.1" width="205.49999999999997" height="77.5625"  xml:space="preserve"><metadata ><rdf:RDF><cc:Work rdf:about=""><dc:format>image/svg+xml</dc:format><dc:type rdf:resource="http://purl.org/dc/dcmitype/StillImage" /></cc:Work></rdf:RDF></metadata><defs ><clipPath id="chap8diag-20-clipPath18"><path d="M 0,0 136,0 136,47 0,47 0,0 z"  /></clipPath></defs><g transform="translate(5,5)"><g transform="scale(1.15)"><g transform="matrix(1.25,0,0,-1.25,0,58.75)" ><g ><g ><g clip-path="url(#chap8diag-20-clipPath18)" ><g transform="translate(0,47)" ><g transform="translate(12,-43)" ><path d="m 56.11917,32.40033 57.594,0 L 108,0 0,0 56.11917,32.40033"  style="fill:none;stroke:currentColor;stroke-width:0.5;stroke-linecap:round;stroke-linejoin:round;stroke-miterlimit:10;stroke-opacity:1;stroke-dasharray:none" /><path d="m 81.23375,29.41148 5.17685,2.98885 -5.17685,2.98885"  style="fill:none;stroke:currentColor;stroke-width:0.5;stroke-linecap:round;stroke-linejoin:round;stroke-miterlimit:10;stroke-opacity:1;stroke-dasharray:none" /><path d="M 50.31793,-2.98856 55.49428,0 50.31793,2.98856"  style="fill:none;stroke:currentColor;stroke-width:0.5;stroke-linecap:round;stroke-linejoin:round;stroke-miterlimit:10;stroke-opacity:1;stroke-dasharray:none" /><g transform="translate(0,47)" ><text transform="matrix(1,0,0,-1,56.0587,-24.3688)" ><tspan x="0 5.4545498 10.9091" y="0"  style="font-size:10.90909958px;font-variant:normal;writing-mode:lr-tb;fill:currentColor;fill-opacity:1;fill-rule:nonzero;stroke:none;font-family:STIX;font-style:normal">150</tspan></text> <text transform="matrix(1,0,0,-1,72.4223,-20.4088)" ><tspan x="0" y="0"  style="font-size:7.97009993px;font-variant:normal;font-weight:normal;writing-mode:lr-tb;fill:currentColor;fill-opacity:1;fill-rule:nonzero;stroke:none;font-family:Pxsy;-inkscape-font-specification:Pxsy">◦</tspan></text> <text transform="matrix(1,0,0,-1,96.0376,-24.2941)" ><tspan x="0 5.4545498" y="0"  style="font-size:10.90909958px;font-variant:normal;writing-mode:lr-tb;fill:currentColor;fill-opacity:1;fill-rule:nonzero;stroke:none;font-family:STIX;font-style:normal">80</tspan></text> <text transform="matrix(1,0,0,-1,106.9467,-20.3341)" ><tspan x="0" y="0"  style="font-size:7.97009993px;font-variant:normal;font-weight:normal;writing-mode:lr-tb;fill:currentColor;fill-opacity:1;fill-rule:nonzero;stroke:none;font-family:Pxsy;-inkscape-font-specification:Pxsy">◦</tspan></text> <text transform="matrix(1,0,0,-1,46.1429,-12.4288)" ><tspan x="0" y="0"  style="font-size:10.90909958px;font-variant:normal;writing-mode:lr-tb;fill:currentColor;fill-opacity:1;fill-rule:nonzero;stroke:none;font-family:STIX;font-style:italic">A</tspan><tspan x="70.570297" y="5.8881001"  style="font-size:10.90909958px;font-variant:normal;writing-mode:lr-tb;fill:currentColor;fill-opacity:1;fill-rule:nonzero;stroke:none;font-family:STIX;font-style:italic">B</tspan><tspan x="64.857101" y="38.310299"  style="font-size:10.90909958px;font-variant:normal;writing-mode:lr-tb;fill:currentColor;fill-opacity:1;fill-rule:nonzero;stroke:none;font-family:STIX;font-style:italic">C</tspan><tspan x="-57.6301" y="38.288502"  style="font-size:10.90909958px;font-variant:normal;writing-mode:lr-tb;fill:currentColor;fill-opacity:1;fill-rule:nonzero;stroke:none;font-family:STIX;font-style:italic">D</tspan></text> </g></g></g></g></g></g></g></g></g></svg>