<svg viewBox="0 0 172.4375 122.12499999999999" preserveAspectRatio="xMinYMin meet" data-src="chap8diag-27" xmlns:dc="http://purl.org/dc/elements/1.1/" xmlns:cc="http://creativecommons.org/ns#" xmlns:rdf="http://www.w3.org/1999/02/22-rdf-syntax-ns#" xmlns:svg="http://www.w3.org/2000/svg" xmlns="http://www.w3.org/2000/svg" xmlns:inkscape="http://www.inkscape.org/namespaces/inkscape" version="1.1" width="172.4375" height="122.12499999999999"  xml:space="preserve"><metadata ><rdf:RDF><cc:Work rdf:about=""><dc:format>image/svg+xml</dc:format><dc:type rdf:resource="http://purl.org/dc/dcmitype/StillImage" /></cc:Work></rdf:RDF></metadata><defs ><clipPath id="chap8diag-27-clipPath18"><path d="M 0,0 113,0 113,78 0,78 0,0 z"  /></clipPath></defs><g transform="translate(5,5)"><g transform="scale(1.15)"><g transform="matrix(1.25,0,0,-1.25,0,97.5)" ><g ><g ><g clip-path="url(#chap8diag-27-clipPath18)" ><g transform="translate(0,78)" ><g transform="translate(11,-67)" ><path d="M 0,0 64.80066,56.1607 90.72119,0 0,0 l 12.96027,56.1607 51.84039,0"  style="fill:none;stroke:currentColor;stroke-width:0.5;stroke-linecap:round;stroke-linejoin:round;stroke-miterlimit:10;stroke-opacity:1;stroke-dasharray:none" /><g transform="translate(0,78)" ><text transform="matrix(1,0,0,-1,19.3912,-47.6234)" ><tspan x="0 5.4545498" y="0"  style="font-size:10.90909958px;font-variant:normal;writing-mode:lr-tb;fill:currentColor;fill-opacity:1;fill-rule:nonzero;stroke:none;font-family:STIX;font-style:normal">20</tspan><tspan x="14.0347 19.48925" y="-28.835899"  style="font-size:10.90909958px;font-variant:normal;writing-mode:lr-tb;fill:currentColor;fill-opacity:1;fill-rule:nonzero;stroke:none;font-family:STIX;font-style:normal">17</tspan><tspan x="61.369701 66.824249" y="6.0327001"  style="font-size:10.90909958px;font-variant:normal;writing-mode:lr-tb;fill:currentColor;fill-opacity:1;fill-rule:nonzero;stroke:none;font-family:STIX;font-style:normal">13</tspan></text> <text transform="matrix(1,0,0,-1,-0.7305,-25.5566)" ><tspan x="0 69.392784" y="0"  style="font-size:10.90909958px;font-variant:normal;writing-mode:lr-tb;fill:currentColor;fill-opacity:1;fill-rule:nonzero;stroke:none;font-family:STIX;font-style:italic">WX</tspan><tspan x="94.451698" y="56.2616"  style="font-size:10.90909958px;font-variant:normal;writing-mode:lr-tb;fill:currentColor;fill-opacity:1;fill-rule:nonzero;stroke:none;font-family:STIX;font-style:italic">Y</tspan><tspan x="-9.5458002" y="56.160702"  style="font-size:10.90909958px;font-variant:normal;writing-mode:lr-tb;fill:currentColor;fill-opacity:1;fill-rule:nonzero;stroke:none;font-family:STIX;font-style:italic">Z</tspan></text> <g transform="translate(0,-78)" ><path d="M 64.80066,56.1607 64.80066,0"  style="fill:none;stroke:currentColor;stroke-width:0.5;stroke-linecap:round;stroke-linejoin:round;stroke-miterlimit:10;stroke-opacity:1;stroke-dasharray:none" /><path d="m 69.78197,0 0,4.98131 -4.98131,0"  style="fill:none;stroke:currentColor;stroke-width:0.5;stroke-linecap:round;stroke-linejoin:round;stroke-miterlimit:10;stroke-opacity:1;stroke-dasharray:none" /><g transform="translate(0,78)" ><text transform="matrix(1,0,0,-1,60.4371,-88.5054)" ><tspan x="0" y="0"  style="font-size:10.90909958px;font-variant:normal;writing-mode:lr-tb;fill:currentColor;fill-opacity:1;fill-rule:nonzero;stroke:none;font-family:STIX;font-style:italic">H</tspan><tspan x="-4.0910001" y="-34.623001"  style="font-size:10.90909958px;font-variant:normal;writing-mode:lr-tb;fill:currentColor;fill-opacity:1;fill-rule:nonzero;stroke:none;font-family:STIX;font-style:italic">h</tspan><tspan x="14.5966" y="-13.5763"  style="font-size:10.90909958px;font-variant:normal;writing-mode:lr-tb;fill:currentColor;fill-opacity:1;fill-rule:nonzero;stroke:none;font-family:STIX;font-style:italic">x</tspan></text> <text transform="matrix(1,0,0,-1,18.1452,-74.9291)" ><tspan x="0 5.4545498" y="0"  style="font-size:10.90909958px;font-variant:normal;writing-mode:lr-tb;fill:currentColor;fill-opacity:1;fill-rule:nonzero;stroke:none;font-family:STIX;font-style:normal">21</tspan></text> <text transform="matrix(1,0,0,-1,31.4785,-74.9291)" ><tspan x="0" y="0"  style="font-size:10.90909958px;font-variant:normal;font-weight:normal;writing-mode:lr-tb;fill:currentColor;fill-opacity:1;fill-rule:nonzero;stroke:none;font-family:Pxsy;-inkscape-font-specification:Pxsy">−</tspan></text> <text transform="matrix(1,0,0,-1,41.2008,-74.9291)" ><tspan x="0" y="0"  style="font-size:10.90909958px;font-variant:normal;writing-mode:lr-tb;fill:currentColor;fill-opacity:1;fill-rule:nonzero;stroke:none;font-family:STIX;font-style:italic">x</tspan></text> </g></g></g></g></g></g></g></g></g></g></g></svg>