<svg viewBox="0 0 129.3125 84.75" preserveAspectRatio="xMinYMin meet" data-src="chap8diag-34" xmlns:dc="http://purl.org/dc/elements/1.1/" xmlns:cc="http://creativecommons.org/ns#" xmlns:rdf="http://www.w3.org/1999/02/22-rdf-syntax-ns#" xmlns:svg="http://www.w3.org/2000/svg" xmlns="http://www.w3.org/2000/svg" xmlns:inkscape="http://www.inkscape.org/namespaces/inkscape" version="1.1" width="129.3125" height="84.75"  xml:space="preserve"><metadata ><rdf:RDF><cc:Work rdf:about=""><dc:format>image/svg+xml</dc:format><dc:type rdf:resource="http://purl.org/dc/dcmitype/StillImage" /></cc:Work></rdf:RDF></metadata><defs ><clipPath id="chap8diag-34-clipPath18"><path d="M 0,0 83,0 83,52 0,52 0,0 z"  /></clipPath></defs><g transform="translate(5,5)"><g transform="scale(1.15)"><g transform="matrix(1.25,0,0,-1.25,0,65)" ><g ><g ><g clip-path="url(#chap8diag-34-clipPath18)" ><g transform="translate(0,52)" ><g transform="translate(12,-48)" ><path d="m 35.19783,40.21169 5.17668,2.98875 -5.17668,2.98876"  style="fill:none;stroke:currentColor;stroke-width:0.5;stroke-linecap:round;stroke-linejoin:round;stroke-miterlimit:10;stroke-opacity:1;stroke-dasharray:none" /><path d="M 17.91792,-2.98875 23.0946,0 17.91792,2.98875"  style="fill:none;stroke:currentColor;stroke-width:0.5;stroke-linecap:round;stroke-linejoin:round;stroke-miterlimit:10;stroke-opacity:1;stroke-dasharray:none" /><path d="M 9.11902,14.74979 8.26651,20.66661 3.56866,16.96991"  style="fill:none;stroke:currentColor;stroke-width:0.5;stroke-linecap:round;stroke-linejoin:round;stroke-miterlimit:10;stroke-opacity:1;stroke-dasharray:none" /><path d="M 10.97595,19.39218 10.12344,25.309 5.4256,21.6123"  style="fill:none;stroke:currentColor;stroke-width:0.5;stroke-linecap:round;stroke-linejoin:round;stroke-miterlimit:10;stroke-opacity:1;stroke-dasharray:none" /><path d="m 52.31946,14.74979 -0.85251,5.91682 -4.69785,-3.6967"  style="fill:none;stroke:currentColor;stroke-width:0.5;stroke-linecap:round;stroke-linejoin:round;stroke-miterlimit:10;stroke-opacity:1;stroke-dasharray:none" /><path d="M 54.17639,19.39218 53.32388,25.309 48.62604,21.6123"  style="fill:none;stroke:currentColor;stroke-width:0.5;stroke-linecap:round;stroke-linejoin:round;stroke-miterlimit:10;stroke-opacity:1;stroke-dasharray:none" /><g transform="translate(0,52)" ><text transform="matrix(1,0,0,-1,6.4036,-12.6178)" ><tspan x="0" y="0"  style="font-size:10.90909958px;font-variant:normal;writing-mode:lr-tb;fill:currentColor;fill-opacity:1;fill-rule:nonzero;stroke:none;font-family:STIX;font-style:italic">A</tspan><tspan x="57.076698" y="-0.101"  style="font-size:10.90909958px;font-variant:normal;writing-mode:lr-tb;fill:currentColor;fill-opacity:1;fill-rule:nonzero;stroke:none;font-family:STIX;font-style:italic">B</tspan><tspan x="39.796799" y="43.1213"  style="font-size:10.90909958px;font-variant:normal;writing-mode:lr-tb;fill:currentColor;fill-opacity:1;fill-rule:nonzero;stroke:none;font-family:STIX;font-style:italic">C</tspan><tspan x="-17.8908" y="43.099499"  style="font-size:10.90909958px;font-variant:normal;writing-mode:lr-tb;fill:currentColor;fill-opacity:1;fill-rule:nonzero;stroke:none;font-family:STIX;font-style:italic">D</tspan></text> <g transform="translate(0,-52)" ><path d="m 17.2799,43.20044 43.20045,0 L 43.20044,0 0,0 17.2799,43.20044"  style="fill:none;stroke:currentColor;stroke-width:0.5;stroke-linecap:round;stroke-linejoin:round;stroke-miterlimit:10;stroke-opacity:1;stroke-dasharray:none" /><g transform="translate(0,52)"  /></g></g></g></g></g></g></g></g></g></g></svg>