<svg viewBox="0 0 204.06249999999997 117.81249999999999" preserveAspectRatio="xMinYMin meet" data-src="chap8diag-2" xmlns:dc="http://purl.org/dc/elements/1.1/" xmlns:cc="http://creativecommons.org/ns#" xmlns:rdf="http://www.w3.org/1999/02/22-rdf-syntax-ns#" xmlns:svg="http://www.w3.org/2000/svg" xmlns="http://www.w3.org/2000/svg" xmlns:inkscape="http://www.inkscape.org/namespaces/inkscape" version="1.1" width="204.06249999999997" height="117.81249999999999"  xml:space="preserve"><metadata ><rdf:RDF><cc:Work rdf:about=""><dc:format>image/svg+xml</dc:format><dc:type rdf:resource="http://purl.org/dc/dcmitype/StillImage" /></cc:Work></rdf:RDF></metadata><defs ><clipPath id="chap8diag-2-clipPath18"><path d="M 0,0 135,0 135,75 0,75 0,0 z"  /></clipPath></defs><g transform="translate(5,5)"><g transform="scale(1.15)"><g transform="matrix(1.25,0,0,-1.25,0,93.75)" ><g ><g ><g clip-path="url(#chap8diag-2-clipPath18)" ><g transform="translate(0,75)" ><g transform="translate(11,-71)" ><path d="m 0,0 25.9202,60.47958 43.19989,0 L 112.31998,0 0,0 z"  style="fill:none;stroke:currentColor;stroke-width:0.5;stroke-linecap:butt;stroke-linejoin:round;stroke-miterlimit:10;stroke-opacity:1;stroke-dasharray:none" /><path d="M 25.9202,60.47958 112.31998,0"  style="fill:none;stroke:currentColor;stroke-width:0.5;stroke-linecap:round;stroke-linejoin:round;stroke-miterlimit:10;stroke-opacity:1;stroke-dasharray:none" /><g transform="translate(0,75)" ><text transform="matrix(1,0,0,-1,71.2201,-12.1913)" ><tspan x="0" y="0"  style="font-size:10.90909958px;font-variant:normal;writing-mode:lr-tb;fill:currentColor;fill-opacity:1;fill-rule:nonzero;stroke:none;font-family:STIX;font-style:italic">C</tspan><tspan x="-54.0653" y="0.1582"  style="font-size:10.90909958px;font-variant:normal;writing-mode:lr-tb;fill:currentColor;fill-opacity:1;fill-rule:nonzero;stroke:none;font-family:STIX;font-style:italic">B</tspan><tspan x="-82.096397" y="66.6269"  style="font-size:10.90909958px;font-variant:normal;writing-mode:lr-tb;fill:currentColor;fill-opacity:1;fill-rule:nonzero;stroke:none;font-family:STIX;font-style:italic">A</tspan><tspan x="44.099899" y="66.525902"  style="font-size:10.90909958px;font-variant:normal;writing-mode:lr-tb;fill:currentColor;fill-opacity:1;fill-rule:nonzero;stroke:none;font-family:STIX;font-style:italic">D</tspan></text> <text transform="matrix(1,0,0,-1,22.4526,-32.0269)" ><tspan x="0 5.4545498" y="0"  style="font-size:10.90909958px;font-variant:normal;writing-mode:lr-tb;fill:currentColor;fill-opacity:1;fill-rule:nonzero;stroke:none;font-family:STIX;font-style:normal">88</tspan></text> <text transform="matrix(1,0,0,-1,33.3617,-28.0669)" ><tspan x="0" y="0"  style="font-size:7.97009993px;font-variant:normal;font-weight:normal;writing-mode:lr-tb;fill:currentColor;fill-opacity:1;fill-rule:nonzero;stroke:none;font-family:Pxsy;-inkscape-font-specification:Pxsy">◦</tspan></text> <text transform="matrix(1,0,0,-1,48.5819,-26.8814)" ><tspan x="0 5.4545498 10.9091" y="0"  style="font-size:10.90909958px;font-variant:normal;writing-mode:lr-tb;fill:currentColor;fill-opacity:1;fill-rule:nonzero;stroke:none;font-family:STIX;font-style:normal">126</tspan></text> <text transform="matrix(1,0,0,-1,64.9455,-22.9214)" ><tspan x="0" y="0"  style="font-size:7.97009993px;font-variant:normal;font-weight:normal;writing-mode:lr-tb;fill:currentColor;fill-opacity:1;fill-rule:nonzero;stroke:none;font-family:Pxsy;-inkscape-font-specification:Pxsy">◦</tspan></text> <text transform="matrix(1,0,0,-1,5.5554,-72.8482)" ><tspan x="0 5.4545498" y="0"  style="font-size:10.90909958px;font-variant:normal;writing-mode:lr-tb;fill:currentColor;fill-opacity:1;fill-rule:nonzero;stroke:none;font-family:STIX;font-style:normal">72</tspan></text> <text transform="matrix(1,0,0,-1,16.4645,-68.8882)" ><tspan x="0" y="0"  style="font-size:7.97009993px;font-variant:normal;font-weight:normal;writing-mode:lr-tb;fill:currentColor;fill-opacity:1;fill-rule:nonzero;stroke:none;font-family:Pxsy;-inkscape-font-specification:Pxsy">◦</tspan></text> </g></g></g></g></g></g></g></g></g></svg>