<svg id="Layer_1" data-name="Layer 1" xmlns="http://www.w3.org/2000/svg" viewBox="0 0 352 69"><defs><style>.cls-1{fill:#1b365d;}.cls-2{fill:#61ad00;}</style></defs><path class="cls-1" d="M28.31,40.51l-1.82-5.83h-12l-1.92,5.83H2.46L16.71,1.36h7.42L38.37,40.51Zm-7.64-24.3L17.15,26.65H24Z"/><path class="cls-1" d="M61.09,37.05a12.5,12.5,0,0,1-9.51,3.79,12.51,12.51,0,0,1-9.52-3.79c-2.47-2.7-3.24-5.5-3.24-11.33s.77-8.64,3.24-11.33a12.51,12.51,0,0,1,9.52-3.79,12.5,12.5,0,0,1,9.51,3.79c2.48,2.69,3.24,5.55,3.24,11.33S63.57,34.35,61.09,37.05ZM54,19.56a3.94,3.94,0,0,0-4.84,0c-1.16,1.15-1.32,3.24-1.32,6.16s.16,5,1.32,6.16a3.22,3.22,0,0,0,2.42.82A3.22,3.22,0,0,0,54,31.88c1.15-1.16,1.32-3.25,1.32-6.16S55.15,20.71,54,19.56Z"/><path class="cls-1" d="M84.08,26.54H78.2v14H68.57V1.36H84.08c8.69,0,13.36,6.16,13.36,12.59S92.77,26.54,84.08,26.54ZM83.64,10H78.2v7.92h5.44a4,4,0,1,0,0-7.92Z"/><path class="cls-1" d="M113.51,40.84c-6,0-10.89-1.1-14.85-5.17l6.16-6.16c2,2,5.61,2.75,8.74,2.75,3.8,0,5.61-1.26,5.61-3.52a3.28,3.28,0,0,0-.77-2.31,4.35,4.35,0,0,0-2.58-1l-4.73-.66c-3.47-.5-6.11-1.65-7.87-3.47s-2.69-4.51-2.69-7.86C100.53,6.25,105.92,1,114.82,1c5.61,0,9.85,1.32,13.2,4.67L122,11.75c-2.47-2.47-5.71-2.31-7.42-2.31-3.35,0-4.73,1.93-4.73,3.63a2.61,2.61,0,0,0,.77,1.82,4.48,4.48,0,0,0,2.7,1.15l4.73.66c3.51.49,6,1.59,7.69,3.24,2.09,2,2.92,4.95,2.92,8.58C128.63,36.5,121.75,40.84,113.51,40.84Z"/><path class="cls-2" d="M162.73,40.51,160,32.65H144.58l-2.69,7.86h-6.33L149.91,1.36h4.79l14.35,39.15Zm-10.29-30.3-6.1,17.38h12Z"/><path class="cls-2" d="M183.57,40.84c-6.26,0-12.42-3.85-12.42-14.3s6.16-14.24,12.42-14.24a11.44,11.44,0,0,1,9.19,3.91l-3.85,3.73c-1.76-1.92-3.14-2.64-5.34-2.64a6.25,6.25,0,0,0-5.16,2.48c-1.21,1.54-1.65,3.52-1.65,6.76s.44,5.28,1.65,6.82a6.25,6.25,0,0,0,5.16,2.48c2.2,0,3.58-.72,5.34-2.64l3.85,3.68A11.48,11.48,0,0,1,183.57,40.84Z"/><path class="cls-2" d="M212.67,40.51V38c-2,2-4,2.86-7.42,2.86s-5.77-.82-7.48-2.53a8.54,8.54,0,0,1-2.2-6c0-4.68,3.25-8,9.62-8h7.37v-2c0-3.52-1.76-5.23-6.1-5.23-3.08,0-4.57.72-6.1,2.7l-3.69-3.47c2.64-3.07,5.39-4,10-4,7.64,0,11.49,3.24,11.49,9.57V40.51Zm-.11-12.32H206c-3.3,0-5,1.49-5,4s1.6,4,5.12,4c2.14,0,3.74-.17,5.22-1.6.83-.82,1.21-2.14,1.21-4.12Z"/><path class="cls-2" d="M241.44,40.51v-3a8.58,8.58,0,0,1-7.37,3.3,9.64,9.64,0,0,1-6.82-2.47c-2.8-2.81-3.13-7.59-3.13-11.83s.33-9,3.13-11.76A9.51,9.51,0,0,1,234,12.3c3,0,5.28.72,7.32,3.14V1.36h5.61V40.51ZM235.55,17.3c-5.06,0-5.82,4.29-5.82,9.24s.76,9.3,5.82,9.3,5.78-4.35,5.78-9.3S240.61,17.3,235.55,17.3Z"/><path class="cls-2" d="M258.6,28.19c0,4.79,2.53,7.81,7.09,7.81a8.33,8.33,0,0,0,6.77-2.86L276,36.5a13.08,13.08,0,0,1-10.45,4.34c-7,0-12.53-3.68-12.53-14.3,0-9,4.67-14.24,11.82-14.24,7.48,0,11.82,5.5,11.82,13.42v2.47Zm11.77-7.7a5.75,5.75,0,0,0-5.5-3.52,5.82,5.82,0,0,0-5.55,3.52,8.92,8.92,0,0,0-.72,3.8h12.54A8.9,8.9,0,0,0,270.37,20.49Z"/><path class="cls-2" d="M316.73,40.51v-17c0-4.35-2.47-6.22-5.61-6.22a5.52,5.52,0,0,0-5.77,5.94V40.51h-5.61v-17c0-4.35-2.48-6.22-5.61-6.22s-5.78,1.93-5.78,6.22v17h-5.61V12.63h5.5v2.81a10.08,10.08,0,0,1,7.43-3.14,8.93,8.93,0,0,1,7.92,4.07,10.59,10.59,0,0,1,8.74-4.07,10.11,10.11,0,0,1,7,2.53,10.34,10.34,0,0,1,3,7.86V40.51Z"/><path class="cls-2" d="M338.35,46.07a8.91,8.91,0,0,1-2,3.46,7.71,7.71,0,0,1-5.71,2h-2.26V46.51h1.43c2.37,0,3.19-.72,4-3l1.54-4.35-9.73-26.56h5.94l6.65,19.63,6.49-19.63h6Z"/><path class="cls-1" d="M7.79,60.39,11,49.69h3.26L9.32,63.91H6.26L1.33,49.69H4.58Z"/><path class="cls-1" d="M15.4,50.61a1.43,1.43,0,0,1,.43-1A1.61,1.61,0,0,1,17,49.15a1.88,1.88,0,0,1,.65.11,1.55,1.55,0,0,1,.5.3,1.51,1.51,0,0,1,.32.47,1.58,1.58,0,0,1,.11.58,1.63,1.63,0,0,1-.11.59,1.36,1.36,0,0,1-.32.46,1.28,1.28,0,0,1-.5.31,1.89,1.89,0,0,1-.65.1,2,2,0,0,1-.66-.1,1.36,1.36,0,0,1-.5-.31,1.33,1.33,0,0,1-.31-.46A1.45,1.45,0,0,1,15.4,50.61Zm3,13.3H15.57V53.34H18.4Z"/><path class="cls-1" d="M26.66,56l-.5-.05-.51,0a2.84,2.84,0,0,0-1.34.28,1.7,1.7,0,0,0-.76.81v6.91H20.73V53.34h2.66l.08,1.26a3.3,3.3,0,0,1,1-1.07,2.46,2.46,0,0,1,1.36-.38,2.74,2.74,0,0,1,.48,0,1.7,1.7,0,0,1,.4.09Z"/><path class="cls-1" d="M31.89,50.75v2.59H33.7v2.07H31.89v5.28a1.65,1.65,0,0,0,.07.54.67.67,0,0,0,.2.34.78.78,0,0,0,.34.17,2.17,2.17,0,0,0,.47,0,3.47,3.47,0,0,0,.47,0l.36,0v2.14A7.09,7.09,0,0,1,33,64a5.35,5.35,0,0,1-.95.08,4.44,4.44,0,0,1-1.25-.17,2.35,2.35,0,0,1-1.56-1.51A4.38,4.38,0,0,1,29.07,61V55.41H27.52V53.34h1.55V50.75Z"/><path class="cls-1" d="M41.6,62.84a3.54,3.54,0,0,1-1.21.93,3.85,3.85,0,0,1-1.68.34,4.56,4.56,0,0,1-1.43-.22,2.8,2.8,0,0,1-1.11-.7A3.11,3.11,0,0,1,35.45,62a5.56,5.56,0,0,1-.25-1.79V53.34H38V60.2a2.37,2.37,0,0,0,.11.75,1.2,1.2,0,0,0,.32.5,1.18,1.18,0,0,0,.47.28,1.91,1.91,0,0,0,.61.09,2.65,2.65,0,0,0,1.24-.26,1.79,1.79,0,0,0,.73-.74V53.34h2.83V63.91H41.67Z"/><path class="cls-1" d="M52.58,63.91A3.15,3.15,0,0,1,52.3,63a3.73,3.73,0,0,1-1.08.81,3.34,3.34,0,0,1-1.59.34,4.15,4.15,0,0,1-1.42-.24,3.36,3.36,0,0,1-1.14-.65,3.24,3.24,0,0,1-.76-1A3,3,0,0,1,46,60.94a3.31,3.31,0,0,1,.31-1.47,2.85,2.85,0,0,1,.92-1.1,4.49,4.49,0,0,1,1.53-.68,8.39,8.39,0,0,1,2.12-.23h1.26v-.61a1.73,1.73,0,0,0-.37-1.17,1.51,1.51,0,0,0-1.19-.44,1.67,1.67,0,0,0-1.12.34,1.16,1.16,0,0,0-.4.94H46.27a2.81,2.81,0,0,1,.32-1.3,3.16,3.16,0,0,1,.9-1.07,4.64,4.64,0,0,1,1.42-.73,6,6,0,0,1,1.86-.27,6.18,6.18,0,0,1,1.7.23,3.89,3.89,0,0,1,1.34.7,3.31,3.31,0,0,1,.89,1.16A4,4,0,0,1,55,56.87v4.47q0,.45,0,.81c0,.24.05.45.08.64a3.29,3.29,0,0,0,.13.52,2.77,2.77,0,0,0,.18.43v.17Zm-2.33-2a2.41,2.41,0,0,0,.67-.09,2.27,2.27,0,0,0,.55-.23,1.7,1.7,0,0,0,.42-.33,1.67,1.67,0,0,0,.29-.38V59.11H51a3.52,3.52,0,0,0-1,.12,1.76,1.76,0,0,0-.67.34,1.3,1.3,0,0,0-.39.52,1.54,1.54,0,0,0-.13.65,1.16,1.16,0,0,0,.37.87A1.49,1.49,0,0,0,50.25,62Z"/><path class="cls-1" d="M60.16,63.91H57.33v-15h2.83Z"/><path class="cls-1" d="M78.81,59.17a5.65,5.65,0,0,1-.49,2,4.6,4.6,0,0,1-1.13,1.55,5,5,0,0,1-1.75,1,7.11,7.11,0,0,1-2.35.37,6.07,6.07,0,0,1-2.46-.48,5,5,0,0,1-1.84-1.36,6.09,6.09,0,0,1-1.16-2.15,9.32,9.32,0,0,1-.41-2.84v-.94a9,9,0,0,1,.42-2.84,6.35,6.35,0,0,1,1.19-2.16A5,5,0,0,1,70.69,50a6,6,0,0,1,2.44-.48,6.82,6.82,0,0,1,2.35.37,4.93,4.93,0,0,1,1.73,1.05,4.48,4.48,0,0,1,1.11,1.59,6.46,6.46,0,0,1,.51,2H75.9a4.12,4.12,0,0,0-.22-1.13,2.24,2.24,0,0,0-.49-.82,2,2,0,0,0-.83-.5,4,4,0,0,0-1.23-.17A2.48,2.48,0,0,0,70.92,53a6,6,0,0,0-.73,3.34v1a10,10,0,0,0,.16,1.93,4.12,4.12,0,0,0,.51,1.39,2.27,2.27,0,0,0,.9.84,3,3,0,0,0,1.33.27,4.28,4.28,0,0,0,1.2-.15,2.18,2.18,0,0,0,.84-.48,2.22,2.22,0,0,0,.52-.79,4,4,0,0,0,.23-1.12Z"/><path class="cls-1" d="M86.67,63.91a3.15,3.15,0,0,1-.28-.95,3.73,3.73,0,0,1-1.08.81,3.34,3.34,0,0,1-1.59.34,4.15,4.15,0,0,1-1.42-.24,3.36,3.36,0,0,1-1.14-.65,3.24,3.24,0,0,1-.76-1,3,3,0,0,1-.27-1.28,3.31,3.31,0,0,1,.31-1.47,2.85,2.85,0,0,1,.92-1.1,4.49,4.49,0,0,1,1.53-.68A8.44,8.44,0,0,1,85,57.46h1.26v-.61a1.73,1.73,0,0,0-.37-1.17,1.5,1.5,0,0,0-1.19-.44,1.68,1.68,0,0,0-1.12.34,1.16,1.16,0,0,0-.4.94H80.37a2.8,2.8,0,0,1,.31-1.3,3.19,3.19,0,0,1,.91-1.07A4.47,4.47,0,0,1,83,53.42a6,6,0,0,1,1.86-.27,6.13,6.13,0,0,1,1.7.23,3.8,3.8,0,0,1,1.34.7,3.19,3.19,0,0,1,.89,1.16,4,4,0,0,1,.32,1.63v4.47q0,.45,0,.81a5.45,5.45,0,0,0,.07.64,4.93,4.93,0,0,0,.13.52,2.08,2.08,0,0,0,.19.43v.17Zm-2.33-2a2.41,2.41,0,0,0,.67-.09,2.27,2.27,0,0,0,.55-.23A1.76,1.76,0,0,0,86,61.3a1.61,1.61,0,0,0,.28-.38V59.11H85.11a3.52,3.52,0,0,0-1,.12,1.84,1.84,0,0,0-.67.34,1.52,1.52,0,0,0-.39.52,1.71,1.71,0,0,0-.13.65,1.16,1.16,0,0,0,.37.87A1.49,1.49,0,0,0,84.34,62Z"/><path class="cls-1" d="M93.92,53.34,94,54.53a3.71,3.71,0,0,1,1.28-1,3.93,3.93,0,0,1,1.76-.37,3.6,3.6,0,0,1,1.67.38,2.52,2.52,0,0,1,1.13,1.23,3.77,3.77,0,0,1,1.3-1.18,3.83,3.83,0,0,1,1.87-.43,4.38,4.38,0,0,1,1.4.21,2.69,2.69,0,0,1,1.08.7,3.28,3.28,0,0,1,.68,1.24,6.37,6.37,0,0,1,.24,1.88v6.73h-2.83V57.18a3,3,0,0,0-.11-.87,1.32,1.32,0,0,0-.32-.53,1.09,1.09,0,0,0-.5-.26,2.65,2.65,0,0,0-.66-.08,1.8,1.8,0,0,0-1.1.33,2,2,0,0,0-.66.88v.11a.45.45,0,0,1,0,.11v7H97.43V57.2a3,3,0,0,0-.11-.87A1.24,1.24,0,0,0,97,55.8a1.16,1.16,0,0,0-.51-.28,2.73,2.73,0,0,0-.67-.08,2,2,0,0,0-1,.27,1.78,1.78,0,0,0-.68.73v7.47H91.27V53.34Z"/><path class="cls-1" d="M118.1,58.73a8,8,0,0,1-.27,2.13,5.38,5.38,0,0,1-.78,1.71,3.88,3.88,0,0,1-1.29,1.13,3.72,3.72,0,0,1-1.76.41,3.46,3.46,0,0,1-1.48-.3,3.21,3.21,0,0,1-1.11-.82v5h-2.82V53.34h2.62l.09,1a3.67,3.67,0,0,1,1.14-.91,3.5,3.5,0,0,1,1.54-.32,4,4,0,0,1,1.78.38,3.68,3.68,0,0,1,1.29,1.1,5.22,5.22,0,0,1,.78,1.7,8.31,8.31,0,0,1,.27,2.19Zm-2.82-.21a6.67,6.67,0,0,0-.11-1.22,3.26,3.26,0,0,0-.36-1,1.71,1.71,0,0,0-.63-.65,1.75,1.75,0,0,0-.94-.24,2.24,2.24,0,0,0-1.14.26,1.76,1.76,0,0,0-.69.76v4.33a1.81,1.81,0,0,0,.69.76,2.1,2.1,0,0,0,1.16.28,1.75,1.75,0,0,0,.94-.24,1.9,1.9,0,0,0,.62-.67,3.31,3.31,0,0,0,.35-1,6.61,6.61,0,0,0,.11-1.2Z"/><path class="cls-1" d="M126.18,62.84a3.54,3.54,0,0,1-1.21.93,3.85,3.85,0,0,1-1.68.34,4.56,4.56,0,0,1-1.43-.22,2.8,2.8,0,0,1-1.11-.7A3.11,3.11,0,0,1,120,62a5.56,5.56,0,0,1-.25-1.79V53.34h2.82V60.2a2.37,2.37,0,0,0,.11.75,1.2,1.2,0,0,0,.32.5,1.18,1.18,0,0,0,.47.28,1.91,1.91,0,0,0,.61.09,2.65,2.65,0,0,0,1.24-.26,1.79,1.79,0,0,0,.73-.74V53.34h2.83V63.91h-2.66Z"/><path class="cls-1" d="M136.76,61a.91.91,0,0,0-.09-.41.83.83,0,0,0-.33-.35,3,3,0,0,0-.66-.3,7.86,7.86,0,0,0-1.09-.29,9.09,9.09,0,0,1-1.5-.44,4.67,4.67,0,0,1-1.19-.65,2.93,2.93,0,0,1-.78-.91,2.42,2.42,0,0,1-.29-1.2,2.91,2.91,0,0,1,.29-1.26,3.09,3.09,0,0,1,.83-1,4.22,4.22,0,0,1,1.33-.72,5.73,5.73,0,0,1,1.77-.26,6.23,6.23,0,0,1,1.85.25,4.23,4.23,0,0,1,1.39.71,3.06,3.06,0,0,1,1.19,2.45h-2.83a1.35,1.35,0,0,0-.39-1,1.62,1.62,0,0,0-1.22-.4,1.72,1.72,0,0,0-1.1.32,1,1,0,0,0-.39.82.82.82,0,0,0,.1.42,1,1,0,0,0,.33.33,3.2,3.2,0,0,0,.61.28,8.19,8.19,0,0,0,.92.23,12.24,12.24,0,0,1,1.59.41,5.19,5.19,0,0,1,1.27.63,2.86,2.86,0,0,1,.83.94,2.64,2.64,0,0,1,.31,1.33,2.75,2.75,0,0,1-.32,1.3,3,3,0,0,1-.89,1,4.34,4.34,0,0,1-1.4.67,6.55,6.55,0,0,1-1.84.25,5.63,5.63,0,0,1-2-.32,4.33,4.33,0,0,1-1.43-.82,3.25,3.25,0,0,1-.87-1.14,3,3,0,0,1-.3-1.28h2.68a1.59,1.59,0,0,0,.18.71,1.4,1.4,0,0,0,.42.48,1.79,1.79,0,0,0,.61.28,3.55,3.55,0,0,0,.73.08,2.11,2.11,0,0,0,1.23-.3A1,1,0,0,0,136.76,61Z"/></svg>