<svg id="Layer_1" data-name="Layer 1" xmlns="http://www.w3.org/2000/svg" viewBox="0 0 421 82"><defs><style>.cls-1{fill:#fff;}</style></defs><polygon class="cls-1" points="29.59 1.27 20.96 6.23 29.59 11.19 38.18 6.23 29.59 1.27"/><polygon class="cls-1" points="20.01 6.78 11.41 11.74 20.01 16.71 28.61 11.74 20.01 6.78"/><polygon class="cls-1" points="39.14 6.78 30.54 11.74 39.14 16.71 47.73 11.74 39.14 6.78"/><polygon class="cls-1" points="48.69 12.3 40.09 17.26 48.69 22.22 57.28 17.26 48.69 12.3"/><polygon class="cls-1" points="10.46 12.3 1.86 17.26 10.46 22.22 19.06 17.26 10.46 12.3"/><polygon class="cls-1" points="1.39 50.09 9.99 55.06 9.99 45.13 1.39 40.17 1.39 50.09"/><polygon class="cls-1" points="10.94 55.61 19.54 60.6 19.54 50.65 10.94 45.68 10.94 55.61"/><polygon class="cls-1" points="1.39 39.07 9.99 44.03 9.99 34.1 1.39 29.14 1.39 39.07"/><polygon class="cls-1" points="1.39 28.04 9.99 33 9.99 23.05 1.39 18.09 1.39 28.04"/><polygon class="cls-1" points="20.49 61.15 29.11 66.11 29.11 56.16 20.49 51.2 20.49 61.15"/><polygon class="cls-1" points="57.78 50.09 49.16 55.06 49.16 45.13 57.78 40.17 57.78 50.09"/><polygon class="cls-1" points="48.21 55.61 39.61 60.6 39.61 50.65 48.21 45.68 48.21 55.61"/><polygon class="cls-1" points="57.78 39.07 49.16 44.03 49.16 34.1 57.78 29.14 57.78 39.07"/><polygon class="cls-1" points="57.78 28.04 49.16 33 49.16 23.05 57.78 18.09 57.78 28.04"/><polygon class="cls-1" points="38.66 61.15 30.06 66.11 30.06 56.16 38.66 51.2 38.66 61.15"/><polygon class="cls-1" points="29.59 55.33 38.18 50.37 29.59 45.41 20.96 50.37 29.59 55.33"/><polygon class="cls-1" points="39.14 49.82 47.73 44.86 39.14 39.89 30.54 44.86 39.14 49.82"/><polygon class="cls-1" points="20.01 49.82 28.61 44.86 20.01 39.89 11.41 44.86 20.01 49.82"/><polygon class="cls-1" points="48.21 23.05 39.61 18.09 39.61 28.04 48.21 33 48.21 23.05"/><polygon class="cls-1" points="38.66 17.54 30.06 12.57 30.06 22.5 38.66 27.49 38.66 17.54"/><polygon class="cls-1" points="48.21 34.1 39.61 29.14 39.61 39.07 48.21 44.03 48.21 34.1"/><polygon class="cls-1" points="10.94 23.05 19.54 18.09 19.54 28.04 10.94 33 10.94 23.05"/><polygon class="cls-1" points="20.49 17.54 29.11 12.57 29.11 22.5 20.49 27.49 20.49 17.54"/><polygon class="cls-1" points="10.94 34.1 19.54 29.14 19.54 39.07 10.94 44.03 10.94 34.1"/><polygon class="cls-1" points="38.66 39.07 38.66 29.14 30.06 34.1 30.06 44.03 38.66 39.07"/><polygon class="cls-1" points="20.49 39.07 29.09 44.03 29.09 34.1 20.49 29.14 20.49 39.07"/><polygon class="cls-1" points="29.59 23.33 20.96 28.31 29.59 33.28 38.18 28.31 29.59 23.33"/><path class="cls-1" d="M97.25,53.27l-1.81-5.83h-12l-1.93,5.83H71.41L85.65,14.12h7.42l14.25,39.15ZM89.61,29,86.09,39.41h6.82Z"/><path class="cls-1" d="M130,49.81a13.83,13.83,0,0,1-19,0c-2.48-2.7-3.25-5.5-3.25-11.33s.77-8.64,3.25-11.33a13.8,13.8,0,0,1,19,0c2.48,2.69,3.25,5.55,3.25,11.33S132.51,47.11,130,49.81Zm-7.09-17.49a3.94,3.94,0,0,0-4.84,0c-1.15,1.15-1.32,3.24-1.32,6.16s.17,5,1.32,6.16a4,4,0,0,0,4.84,0c1.16-1.16,1.32-3.25,1.32-6.16S124.1,33.47,122.94,32.32Z"/><path class="cls-1" d="M153,39.3h-5.88v14h-9.62V14.12H153c8.69,0,13.37,6.15,13.37,12.59S161.71,39.3,153,39.3Zm-.44-16.55h-5.44v7.92h5.44a4,4,0,1,0,0-7.92Z"/><path class="cls-1" d="M182.45,53.6c-6,0-10.89-1.1-14.85-5.17l6.16-6.16c2,2,5.61,2.75,8.74,2.75,3.8,0,5.61-1.26,5.61-3.52a3.28,3.28,0,0,0-.77-2.31,4.35,4.35,0,0,0-2.58-1L180,37.49c-3.46-.5-6.1-1.65-7.86-3.47s-2.7-4.51-2.7-7.86c0-7.15,5.39-12.37,14.3-12.37,5.61,0,9.84,1.32,13.2,4.67l-6.05,6.05c-2.48-2.48-5.72-2.31-7.43-2.31-3.35,0-4.72,1.92-4.72,3.63a2.57,2.57,0,0,0,.76,1.81,4.42,4.42,0,0,0,2.7,1.16l4.73.66c3.52.49,6,1.59,7.7,3.24,2.09,2,2.91,4.95,2.91,8.58C197.57,49.26,190.7,53.6,182.45,53.6Z"/><path class="cls-1" d="M231.67,53.27,229,45.41H213.52l-2.69,7.86h-6.32l14.35-39.15h4.78L238,53.27ZM221.39,23l-6.11,17.38h12.05Z"/><path class="cls-1" d="M252.52,53.6c-6.27,0-12.43-3.85-12.43-14.3s6.16-14.24,12.43-14.24A11.44,11.44,0,0,1,261.7,29l-3.85,3.74c-1.76-1.92-3.13-2.64-5.33-2.64a6.27,6.27,0,0,0-5.17,2.48c-1.21,1.54-1.65,3.52-1.65,6.76s.44,5.28,1.65,6.82a6.27,6.27,0,0,0,5.17,2.48c2.2,0,3.57-.72,5.33-2.64l3.85,3.68A11.46,11.46,0,0,1,252.52,53.6Z"/><path class="cls-1" d="M281.62,53.27V50.74c-2,2-4,2.86-7.43,2.86s-5.77-.82-7.48-2.53a8.54,8.54,0,0,1-2.2-6c0-4.68,3.25-8,9.63-8h7.37v-2c0-3.52-1.76-5.23-6.11-5.23-3.08,0-4.56.72-6.1,2.7l-3.69-3.47c2.64-3.08,5.39-4,10-4,7.65,0,11.5,3.24,11.5,9.57V53.27ZM281.51,41H275c-3.3,0-5,1.49-5,4s1.59,4,5.11,4c2.15,0,3.74-.17,5.23-1.6.82-.82,1.21-2.14,1.21-4.12Z"/><path class="cls-1" d="M310.38,53.27v-3A8.57,8.57,0,0,1,303,53.6a9.65,9.65,0,0,1-6.82-2.47c-2.8-2.81-3.13-7.59-3.13-11.83s.33-9,3.13-11.77A9.51,9.51,0,0,1,303,25.06c3,0,5.28.71,7.31,3.13V14.12h5.61V53.27ZM304.5,30.06c-5.06,0-5.83,4.29-5.83,9.24s.77,9.3,5.83,9.3,5.77-4.35,5.77-9.3S309.56,30.06,304.5,30.06Z"/><path class="cls-1" d="M327.54,41c0,4.79,2.53,7.81,7.1,7.81a8.33,8.33,0,0,0,6.76-2.86L345,49.26a13.09,13.09,0,0,1-10.45,4.34c-7,0-12.54-3.68-12.54-14.3,0-9,4.67-14.24,11.82-14.24,7.48,0,11.83,5.5,11.83,13.42V41Zm11.77-7.7a5.75,5.75,0,0,0-5.5-3.52,5.82,5.82,0,0,0-5.55,3.52,8.92,8.92,0,0,0-.72,3.8h12.54A8.75,8.75,0,0,0,339.31,33.25Z"/><path class="cls-1" d="M385.67,53.27v-17c0-4.35-2.47-6.22-5.6-6.22A5.53,5.53,0,0,0,374.29,36V53.27h-5.61v-17c0-4.35-2.47-6.22-5.61-6.22S357.3,32,357.3,36.28v17h-5.61V25.39h5.5v2.8a10.1,10.1,0,0,1,7.42-3.13,8.9,8.9,0,0,1,7.92,4.07,10.6,10.6,0,0,1,8.74-4.07,10.05,10.05,0,0,1,7,2.53,10.34,10.34,0,0,1,3,7.86V53.27Z"/><path class="cls-1" d="M407.29,58.82a9.15,9.15,0,0,1-2,3.47,7.74,7.74,0,0,1-5.72,2h-2.26V59.26h1.43c2.37,0,3.19-.71,4-3L404.27,52l-9.74-26.56h5.94L407.13,45l6.49-19.63h6Z"/><path class="cls-1" d="M76.73,73.14,80,62.45h3.27l-5,14.22H75.21L70.28,62.45h3.25Z"/><path class="cls-1" d="M84.35,63.37a1.42,1.42,0,0,1,.42-1,1.63,1.63,0,0,1,1.16-.41,1.88,1.88,0,0,1,.65.11,1.31,1.31,0,0,1,.5.3,1.27,1.27,0,0,1,.32.47,1.4,1.4,0,0,1,.11.58,1.44,1.44,0,0,1-.11.59,1.23,1.23,0,0,1-.32.46,1.47,1.47,0,0,1-.5.31,2.16,2.16,0,0,1-1.3,0,1.57,1.57,0,0,1-.5-.31,1.36,1.36,0,0,1-.32-.46A1.63,1.63,0,0,1,84.35,63.37Zm3,13.3H84.51V66.1h2.84Z"/><path class="cls-1" d="M95.61,68.75l-.5,0-.52,0a2.75,2.75,0,0,0-1.34.28,1.76,1.76,0,0,0-.76.81v6.91H89.67V66.1h2.67l.08,1.26a3.17,3.17,0,0,1,1-1.07,2.49,2.49,0,0,1,1.37-.38,2.56,2.56,0,0,1,.47,0,2.71,2.71,0,0,1,.41.08Z"/><path class="cls-1" d="M100.83,63.51V66.1h1.81v2.07h-1.81v5.28a2,2,0,0,0,.07.54.76.76,0,0,0,.21.34.74.74,0,0,0,.33.17,2.27,2.27,0,0,0,.48,0l.46,0,.37,0v2.14a7.29,7.29,0,0,1-.77.18,5.37,5.37,0,0,1-.94.07,4.07,4.07,0,0,1-1.25-.17,2.29,2.29,0,0,1-1-.54,2.34,2.34,0,0,1-.61-1A4,4,0,0,1,98,73.75V68.17H96.47V66.1H98V63.51Z"/><path class="cls-1" d="M110.54,75.6a3.45,3.45,0,0,1-1.21.93,4,4,0,0,1-1.68.33,4.33,4.33,0,0,1-1.43-.22,2.58,2.58,0,0,1-1.1-.69,3.11,3.11,0,0,1-.72-1.22,5.55,5.55,0,0,1-.26-1.79V66.1H107V73a2.12,2.12,0,0,0,.11.75,1.2,1.2,0,0,0,.78.78,2,2,0,0,0,.61.09,2.62,2.62,0,0,0,1.24-.26,1.79,1.79,0,0,0,.73-.74V66.1h2.83V76.67h-2.65Z"/><path class="cls-1" d="M121.53,76.67a3.14,3.14,0,0,1-.29-1,3.41,3.41,0,0,1-2.66,1.14,4.11,4.11,0,0,1-1.42-.23A3.7,3.7,0,0,1,116,76a3.06,3.06,0,0,1-.75-1A2.89,2.89,0,0,1,115,73.7a3.45,3.45,0,0,1,.31-1.47,2.94,2.94,0,0,1,.92-1.1,4.31,4.31,0,0,1,1.53-.68,8.44,8.44,0,0,1,2.13-.24h1.26v-.6a1.73,1.73,0,0,0-.38-1.17,1.46,1.46,0,0,0-1.19-.44,1.66,1.66,0,0,0-1.11.34,1.14,1.14,0,0,0-.41.94h-2.82a2.69,2.69,0,0,1,.32-1.3,3.29,3.29,0,0,1,.9-1.08,4.68,4.68,0,0,1,1.41-.72,6.06,6.06,0,0,1,1.86-.27,6.13,6.13,0,0,1,1.7.23,3.94,3.94,0,0,1,1.35.7,3.28,3.28,0,0,1,.88,1.16,4,4,0,0,1,.32,1.63V74.1q0,.45,0,.81a5.58,5.58,0,0,0,.08.64,3.33,3.33,0,0,0,.12.52,2.8,2.8,0,0,0,.19.43v.17Zm-2.34-2a2.36,2.36,0,0,0,.67-.09,2.53,2.53,0,0,0,.55-.23,1.59,1.59,0,0,0,.43-.33,2,2,0,0,0,.29-.38V71.86H120a3.38,3.38,0,0,0-1,.13,1.81,1.81,0,0,0-.68.34,1.52,1.52,0,0,0-.39.52,1.71,1.71,0,0,0-.12.65,1.09,1.09,0,0,0,.37.86A1.41,1.41,0,0,0,119.19,74.71Z"/><path class="cls-1" d="M129.1,76.67h-2.83v-15h2.83Z"/><path class="cls-1" d="M147.76,71.93a5.88,5.88,0,0,1-.49,2,4.6,4.6,0,0,1-1.13,1.55,5.26,5.26,0,0,1-1.76,1,7.07,7.07,0,0,1-2.35.36,6,6,0,0,1-2.45-.47A5,5,0,0,1,137.73,75a6.25,6.25,0,0,1-1.16-2.15,9.33,9.33,0,0,1-.4-2.84V69.1a9,9,0,0,1,.41-2.84,6.42,6.42,0,0,1,1.19-2.16,5.18,5.18,0,0,1,1.86-1.37,6.17,6.17,0,0,1,2.44-.47,6.78,6.78,0,0,1,2.35.37,5.06,5.06,0,0,1,1.74,1,4.74,4.74,0,0,1,1.11,1.59,6.46,6.46,0,0,1,.51,2h-2.93a5.05,5.05,0,0,0-.22-1.12,2.26,2.26,0,0,0-.5-.82,2,2,0,0,0-.83-.5,4,4,0,0,0-1.23-.17,2.49,2.49,0,0,0-2.21,1.08,6.1,6.1,0,0,0-.73,3.34v1a10.89,10.89,0,0,0,.16,1.93,4.12,4.12,0,0,0,.51,1.39,2.17,2.17,0,0,0,.9.83,2.87,2.87,0,0,0,1.33.28,4.18,4.18,0,0,0,1.2-.15,2.16,2.16,0,0,0,.84-.48,2.1,2.1,0,0,0,.52-.79,4,4,0,0,0,.24-1.12Z"/><path class="cls-1" d="M155.62,76.67a3.14,3.14,0,0,1-.29-1,3.37,3.37,0,0,1-2.66,1.14,4.11,4.11,0,0,1-1.42-.23,3.54,3.54,0,0,1-1.14-.65,3,3,0,0,1-.76-1,3,3,0,0,1-.27-1.28,3.45,3.45,0,0,1,.3-1.47,3,3,0,0,1,.93-1.1,4.34,4.34,0,0,1,1.52-.68,8.44,8.44,0,0,1,2.13-.24h1.26v-.6a1.73,1.73,0,0,0-.38-1.17,1.44,1.44,0,0,0-1.18-.44,1.67,1.67,0,0,0-1.12.34,1.17,1.17,0,0,0-.41.94h-2.82a2.81,2.81,0,0,1,.32-1.3,3.29,3.29,0,0,1,.9-1.08,4.62,4.62,0,0,1,1.42-.72,5.94,5.94,0,0,1,1.85-.27,6.13,6.13,0,0,1,1.7.23,3.94,3.94,0,0,1,1.35.7,3.17,3.17,0,0,1,.88,1.16,4,4,0,0,1,.32,1.63V74.1q0,.45,0,.81a5.58,5.58,0,0,0,.08.64,3.33,3.33,0,0,0,.12.52,4.28,4.28,0,0,0,.19.43v.17Zm-2.34-2a2.31,2.31,0,0,0,.67-.09,2.53,2.53,0,0,0,.55-.23,1.59,1.59,0,0,0,.43-.33,1.67,1.67,0,0,0,.29-.38V71.86h-1.16a3.4,3.4,0,0,0-1,.13,1.76,1.76,0,0,0-.67.34,1.43,1.43,0,0,0-.4.52,1.71,1.71,0,0,0-.12.65,1.09,1.09,0,0,0,.37.86A1.42,1.42,0,0,0,153.28,74.71Z"/><path class="cls-1" d="M162.86,66.1l.09,1.18a3.77,3.77,0,0,1,1.29-1,4,4,0,0,1,1.75-.36,3.46,3.46,0,0,1,1.67.38,2.48,2.48,0,0,1,1.13,1.23,3.7,3.7,0,0,1,1.31-1.18,3.77,3.77,0,0,1,1.87-.43,4.42,4.42,0,0,1,1.4.21,2.59,2.59,0,0,1,1.07.7,3,3,0,0,1,.68,1.24,6.37,6.37,0,0,1,.24,1.88v6.73h-2.83V69.94a2.71,2.71,0,0,0-.11-.87,1.25,1.25,0,0,0-.32-.53,1,1,0,0,0-.5-.26,2.59,2.59,0,0,0-.66-.08,1.75,1.75,0,0,0-1.09.33,2,2,0,0,0-.67.88.41.41,0,0,0,0,.11v7.15h-2.82V70a3,3,0,0,0-.11-.87,1.19,1.19,0,0,0-.31-.54,1.11,1.11,0,0,0-.5-.27,2.73,2.73,0,0,0-.67-.08,2,2,0,0,0-1.06.27,1.92,1.92,0,0,0-.68.73v7.47h-2.82V66.1Z"/><path class="cls-1" d="M187,71.48a8.48,8.48,0,0,1-.26,2.14,5.39,5.39,0,0,1-.79,1.71,3.71,3.71,0,0,1-1.28,1.12,3.64,3.64,0,0,1-1.77.41,3.46,3.46,0,0,1-1.48-.29,3.41,3.41,0,0,1-1.11-.82v5h-2.82V66.1h2.62l.1,1a3.39,3.39,0,0,1,1.13-.91,3.53,3.53,0,0,1,1.54-.32,4,4,0,0,1,1.78.38,3.68,3.68,0,0,1,1.29,1.1,5.24,5.24,0,0,1,.79,1.7,8.77,8.77,0,0,1,.26,2.19Zm-2.82-.2a6.67,6.67,0,0,0-.11-1.22,3,3,0,0,0-.36-1,1.72,1.72,0,0,0-1.57-.89,2.29,2.29,0,0,0-1.14.26,1.82,1.82,0,0,0-.69.76v4.32a1.92,1.92,0,0,0,.69.77,2.12,2.12,0,0,0,1.16.28,1.73,1.73,0,0,0,.94-.24,1.93,1.93,0,0,0,.63-.67,3.27,3.27,0,0,0,.34-1,5.69,5.69,0,0,0,.11-1.2Z"/><path class="cls-1" d="M195.12,75.6a3.45,3.45,0,0,1-1.21.93,4,4,0,0,1-1.68.33,4.33,4.33,0,0,1-1.43-.22,2.58,2.58,0,0,1-1.1-.69,3.11,3.11,0,0,1-.72-1.22,5.55,5.55,0,0,1-.26-1.79V66.1h2.83V73a2.12,2.12,0,0,0,.11.75,1.2,1.2,0,0,0,.78.78,2,2,0,0,0,.61.09,2.62,2.62,0,0,0,1.24-.26,1.79,1.79,0,0,0,.73-.74V66.1h2.83V76.67H195.2Z"/><path class="cls-1" d="M205.71,73.75a.91.91,0,0,0-.09-.41,1,1,0,0,0-.33-.35,3.9,3.9,0,0,0-.67-.31,10.23,10.23,0,0,0-1.08-.28A10.18,10.18,0,0,1,202,72a4.36,4.36,0,0,1-1.19-.65,2.84,2.84,0,0,1-.79-.91,2.45,2.45,0,0,1-.28-1.2,2.77,2.77,0,0,1,.29-1.26,3.09,3.09,0,0,1,.83-1,4.17,4.17,0,0,1,1.32-.72,5.79,5.79,0,0,1,1.78-.26,6.16,6.16,0,0,1,1.84.25,4.23,4.23,0,0,1,1.39.71,2.94,2.94,0,0,1,.88,1.08,3,3,0,0,1,.31,1.37H205.6a1.39,1.39,0,0,0-.39-1,1.67,1.67,0,0,0-1.22-.39,1.73,1.73,0,0,0-1.11.32,1,1,0,0,0-.39.82.82.82,0,0,0,.11.42.86.86,0,0,0,.33.33,2.83,2.83,0,0,0,.6.28,7.89,7.89,0,0,0,.93.23,13.14,13.14,0,0,1,1.59.41,4.37,4.37,0,0,1,1.26.63,2.79,2.79,0,0,1,.84.94,3,3,0,0,1,0,2.63,3.1,3.1,0,0,1-.9,1,4.44,4.44,0,0,1-1.4.67,6.49,6.49,0,0,1-1.83.24,5.66,5.66,0,0,1-2-.31,4.62,4.62,0,0,1-1.43-.82,3.47,3.47,0,0,1-.87-1.14,3,3,0,0,1-.29-1.28h2.67a1.73,1.73,0,0,0,.18.71,1.33,1.33,0,0,0,.43.48,1.54,1.54,0,0,0,.61.27,2.86,2.86,0,0,0,.73.09,2.07,2.07,0,0,0,1.22-.3A1,1,0,0,0,205.71,73.75Z"/></svg>